<svg width="28" height="28" viewBox="0 0 28 28" fill="none" xmlns="http://www.w3.org/2000/svg">
<path d="M10.9103 18.2701C10.4274 18.2701 10.0354 18.6525 10.0354 19.1235V20.1665C10.0354 22.8776 12.2965 25.0833 15.0769 25.0833H20.615C23.3999 25.0833 25.6667 22.8721 25.6667 20.1543C25.6667 19.6833 25.2747 19.302 24.7918 19.302C24.3089 19.302 23.9169 19.6833 23.9169 20.1543C23.9169 21.9322 22.4353 23.3764 20.615 23.3764H15.0769C13.2612 23.3764 11.7852 21.9366 11.7852 20.1665V19.1235C11.7852 18.6525 11.3932 18.2701 10.9103 18.2701ZM3.20858 13.1456C2.85407 13.1456 2.53479 13.354 2.39958 13.6743C2.26436 13.9935 2.34049 14.3615 2.59047 14.6054L5.91058 17.8296C6.08216 17.9948 6.30486 18.079 6.5287 18.079C6.75254 18.079 6.97752 17.9948 7.14796 17.8274C7.48883 17.4927 7.48883 16.9529 7.14568 16.6204L5.32655 14.8536H16.8595C17.3424 14.8536 17.7355 14.4712 17.7355 14.0002C17.7355 13.5291 17.3424 13.1456 16.8595 13.1456H3.20858ZM15.0881 2.91663C12.302 2.91663 10.0352 5.12784 10.0352 7.84558V8.87748C10.0352 9.34743 10.4272 9.72982 10.9101 9.72982C11.393 9.72982 11.785 9.34743 11.785 8.87748V7.84558C11.785 6.06774 13.2667 4.62353 15.0881 4.62353H20.625C22.4407 4.62353 23.9167 6.06442 23.9167 7.83339V16.2737C23.9167 16.7447 24.3087 17.1271 24.7916 17.1271C25.2745 17.1271 25.6665 16.7447 25.6665 16.2737V7.83339C25.6665 5.1223 23.4054 2.91663 20.625 2.91663H15.0881ZM7.15023 10.1764C6.80935 9.83944 6.25714 9.83722 5.91286 10.1697L5.07658 10.9766C4.73229 11.3092 4.73002 11.8489 5.06976 12.1837C5.24133 12.3521 5.46631 12.4375 5.69129 12.4375C5.91399 12.4375 6.13669 12.3544 6.30713 12.1903L7.14455 11.3823C7.48769 11.0509 7.48997 10.51 7.15023 10.1764Z" fill="#FF4F4F"/>
</svg>
