<svg width="414" height="91" viewBox="0 0 414 91" fill="none" xmlns="http://www.w3.org/2000/svg">
<path d="M-15 50.2619C0.833333 68.2648 61 95.1423 175 58.6294C289 22.1166 392.833 64.2078 430.5 89.8175" stroke="#E9E9FF" stroke-width="1.5"/>
<path d="M-15 50.2619C0.833333 68.2648 61 95.1423 175 58.6294C289 22.1166 392.833 64.2078 430.5 89.8175" stroke="#E9E9FF" stroke-width="1.5"/>
<path d="M-15.5 43.0354C0.333333 61.0383 60.5 87.9158 174.5 51.4029C288.5 14.8901 392.333 56.9813 430 82.591" stroke="#E9E9FF" stroke-width="1.5"/>
<path d="M-15.5 43.0354C0.333333 61.0383 60.5 87.9158 174.5 51.4029C288.5 14.8901 392.333 56.9813 430 82.591" stroke="#E9E9FF" stroke-width="1.5"/>
<path d="M-16 35.8089C-0.166667 53.8118 60 80.6893 174 44.1764C288 7.66362 391.833 49.7548 429.5 75.3645" stroke="#E9E9FF" stroke-width="1.5"/>
<path d="M-16 35.8089C-0.166667 53.8118 60 80.6893 174 44.1764C288 7.66362 391.833 49.7548 429.5 75.3645" stroke="#E9E9FF" stroke-width="1.5"/>
<path d="M-16.5 28.5825C-0.666667 46.5853 59.5 73.4628 173.5 36.95C287.5 0.437152 391.333 42.5283 429 68.138" stroke="#E9E9FF" stroke-width="1.5"/>
<path d="M-16.5 28.5825C-0.666667 46.5853 59.5 73.4628 173.5 36.95C287.5 0.437152 391.333 42.5283 429 68.138" stroke="#E9E9FF" stroke-width="1.5"/>
<path d="M-17 21.356C-1.16667 39.3588 59 66.2363 173 29.7235C287 -6.78935 390.833 35.3018 428.5 60.9115" stroke="#E9E9FF" stroke-width="1.5"/>
<path d="M-17 21.356C-1.16667 39.3588 59 66.2363 173 29.7235C287 -6.78935 390.833 35.3018 428.5 60.9115" stroke="#E9E9FF" stroke-width="1.5"/>
<path d="M-17.5 14.1294C-1.66667 32.1323 58.5 59.0098 172.5 22.497C286.5 -14.0159 390.333 28.0753 428 53.685" stroke="#E9E9FF" stroke-width="1.5"/>
<path d="M-17.5 14.1294C-1.66667 32.1323 58.5 59.0098 172.5 22.497C286.5 -14.0159 390.333 28.0753 428 53.685" stroke="#E9E9FF" stroke-width="1.5"/>
<path d="M-18 6.90295C-2.16667 24.9058 58 51.7833 172 15.2705C286 -21.2424 389.833 20.8488 427.5 46.4585" stroke="#E9E9FF" stroke-width="1.5"/>
<path d="M-18 6.90295C-2.16667 24.9058 58 51.7833 172 15.2705C286 -21.2424 389.833 20.8488 427.5 46.4585" stroke="#E9E9FF" stroke-width="1.5"/>
</svg>
