<svg width="50" height="50" viewBox="0 0 50 50" fill="none" xmlns="http://www.w3.org/2000/svg">
<path d="M25 16.6667C28.4518 16.6667 31.25 13.8685 31.25 10.4167C31.25 6.96491 28.4518 4.16669 25 4.16669C21.5482 4.16669 18.75 6.96491 18.75 10.4167C18.75 13.8685 21.5482 16.6667 25 16.6667Z" stroke="#252525" stroke-width="4.16667" stroke-linecap="round" stroke-linejoin="round"/>
<path d="M13.5417 16.6667C12.6402 16.676 11.766 16.9776 11.0504 17.526C10.3347 18.0745 9.81634 18.8402 9.57296 19.7084L4.37504 38.5417C4.21755 39.1512 4.20023 39.7885 4.32438 40.4057C4.44854 41.0229 4.71094 41.604 5.09188 42.1052C5.47282 42.6065 5.96239 43.0149 6.52381 43.2997C7.08523 43.5846 7.70391 43.7386 8.33337 43.75H41.6667C42.3098 43.7498 42.9441 43.6007 43.5199 43.3145C44.0958 43.0282 44.5975 42.6126 44.9859 42.1001C45.3744 41.5875 45.6389 40.9921 45.7588 40.3603C45.8787 39.7285 45.8508 39.0775 45.6771 38.4584L40.4167 19.7917C40.1873 18.903 39.6708 18.1149 38.9475 17.5498C38.2242 16.9847 37.3345 16.6743 36.4167 16.6667H13.5417Z" stroke="#252525" stroke-width="4.16667" stroke-linecap="round" stroke-linejoin="round"/>
</svg>
