<svg width="35" height="35" viewBox="0 0 35 35" fill="none" xmlns="http://www.w3.org/2000/svg">
<g clip-path="url(#clip0_132_9)">
<path fill-rule="evenodd" clip-rule="evenodd" d="M17.5 2.91669C9.44558 2.91669 2.91663 9.44565 2.91663 17.5C2.91663 20.2563 3.68225 22.8375 5.01371 25.0367L3.71288 29.4584C3.63819 29.7122 3.63327 29.9815 3.69865 30.238C3.76403 30.4944 3.89728 30.7285 4.0844 30.9156C4.27152 31.1027 4.5056 31.236 4.76203 31.3013C5.01845 31.3667 5.28776 31.3618 5.54163 31.2871L9.96329 29.9863C12.2365 31.3614 14.8432 32.0867 17.5 32.0834C25.5543 32.0834 32.0833 25.5544 32.0833 17.5C32.0833 9.44565 25.5543 2.91669 17.5 2.91669ZM14.2012 20.8002C17.1514 23.749 19.9675 24.1384 20.962 24.1748C22.4743 24.2302 23.9472 23.0752 24.5204 21.735C24.5921 21.5682 24.618 21.3852 24.5955 21.205C24.5729 21.0248 24.5027 20.8538 24.392 20.7098C23.5929 19.689 22.5123 18.9554 21.4564 18.2263C21.2361 18.0735 20.9651 18.0121 20.7004 18.0551C20.4358 18.0981 20.1981 18.242 20.0375 18.4567L19.1625 19.7911C19.1162 19.8625 19.0445 19.9137 18.9619 19.9343C18.8794 19.9549 18.792 19.9433 18.7177 19.9019C18.1241 19.5621 17.2593 18.9846 16.6381 18.3634C16.0168 17.7421 15.4743 16.9167 15.1695 16.3611C15.1327 16.2903 15.1223 16.2086 15.1402 16.1309C15.1581 16.0531 15.2031 15.9842 15.2673 15.9367L16.6147 14.9363C16.8076 14.7694 16.9321 14.5373 16.9644 14.2843C16.9967 14.0314 16.9345 13.7754 16.7897 13.5654C16.1364 12.6088 15.3752 11.3925 14.2712 10.5861C14.1284 10.4835 13.9616 10.4195 13.7868 10.4003C13.6121 10.3812 13.4353 10.4075 13.2737 10.4767C11.932 11.0513 10.7712 12.5242 10.8266 14.0394C10.8631 15.034 11.2525 17.85 14.2012 20.8002Z" fill="#28D045"/>
</g>
<defs>
<clipPath id="clip0_132_9">
<rect width="35" height="35" fill="white"/>
</clipPath>
</defs>
</svg>
